<?xml version="1.0" encoding="UTF-8"?>
<!-- Generated by Pixelmator Pro 3.6.9 -->
<svg width="116" height="108" viewBox="0 0 116 108" xmlns="http://www.w3.org/2000/svg">
    <g id="Layer4">
        <path id="Path" fill="#221f1f" stroke="none" d="M 99.07 43.839996 C 97.616142 37.165024 94.733345 30.884293 90.620003 25.43 C 86.558334 19.953583 81.187767 15.583542 75 12.720001 C 72.752357 11.691513 70.40731 10.890854 68 10.330002 C 65.583351 9.746162 63.120926 9.371445 60.639999 9.209999 C 51.79594 8.655548 42.977314 10.636444 35.220001 14.919998 C 27.33947 19.059555 20.865807 25.446198 16.620001 33.270004 C 13.127996 40.357704 11.38924 48.180389 11.549999 56.080002 C 11.662161 61.096268 12.60145 66.059631 14.33 70.769997 C 16.047394 75.452087 18.576019 79.795097 21.799999 83.599998 C 23.799999 85.940002 23.09 86.190002 20.73 84.650002 C 20.010983 84.200844 19.3407 83.678024 18.73 83.089996 L 17.610001 82 L 17.01 81.389999 L 16.450001 80.709999 C 15.600603 79.715904 14.831518 78.655899 14.15 77.540001 C 13.790001 76.940002 13.43 76.32 13.059999 75.669998 C 12.690001 75.019997 12.43 74.32 12.120001 73.610001 C 11.062626 71.091576 10.229399 68.48481 9.63 65.82 C 9.38 64.480003 9.1 63.139999 8.94 61.82 C 8.78 60.5 8.59 59.120003 8.59 57.760002 C 8.362723 52.326881 8.966346 46.890907 10.379999 41.639999 C 11.112383 39.029411 12.034845 36.475922 13.139999 34 C 14.264448 31.499573 15.652292 29.126152 17.280001 26.919998 C 20.502024 22.505173 24.467871 18.68483 29 15.629997 C 34.43837 11.891472 40.515202 9.180115 46.93 7.629997 C 53.435829 6.08165 60.198326 5.948654 66.760002 7.239998 C 73.965202 8.658127 80.674004 11.936684 86.220001 16.75 C 91.729935 21.537605 96.059189 27.533539 98.870003 34.270004 C 100.619812 38.372978 101.82991 42.685638 102.470001 47.099998 C 104.070625 58.297478 101.715332 69.702591 95.809998 79.349998 C 92.312523 85.122047 87.600006 90.063194 82 93.830002 C 73.339996 99.68 62.849998 102.019997 52.610001 101.57 C 51.470001 101.510002 50.360001 101.419998 49.23 101.339996 C 48.099998 101.260002 47 101.089996 45.869999 100.900002 C 42.908943 100.45591 40.000671 99.71209 37.189999 98.68 C 36.444668 98.388954 35.716789 98.055069 35.009998 97.68 C 34.532192 97.395172 34.086308 97.059921 33.68 96.68 C 33.344704 96.41095 33.033524 96.113152 32.75 95.790001 C 32.48 95.389999 33.189999 95.370003 34.650002 95.690002 L 41.279999 97.269997 C 49.889999 99.150002 59.150002 99.540001 67.900002 97.18 C 76.757813 94.873718 84.615562 89.727715 90.269997 82.529999 C 94.485275 77.139328 97.465446 70.888809 99 64.220001 C 100.52504 57.522385 100.52504 50.567619 99 43.869995 Z"/>
        <path id="path1" fill="#221f1f" stroke="none" d="M 35.220001 84.809998 C 31.490002 88.550003 27.73 92.279999 23.82 95.879997 C 22.389999 97.199997 20.99 98.540001 19.49 99.790001 C 16.866741 102.095062 13.999771 104.106972 10.940001 105.790001 C 9.309514 106.711662 7.472808 107.206955 5.6 107.230003 C 4.584949 107.227821 3.588307 106.958832 2.71 106.449997 C 1.782222 105.875702 1.12314 104.953705 0.88 103.889999 C 0.582767 102.253075 0.685691 100.568558 1.18 98.980003 C 1.596101 97.483047 2.131136 96.021729 2.78 94.610001 C 4.332027 90.973694 6.527163 87.647118 9.26 84.790001 C 10.200001 83.940002 10.469999 84.540001 10.26 85.660004 C 9.851193 87.316017 9.146542 88.884544 8.18 90.290001 C 7.137156 91.8638 6.19204 93.500221 5.35 95.190002 C 4.499291 96.818932 3.828665 98.535736 3.35 100.309998 C 2.94 102 2.97 103.75 3.76 104.309998 C 4.312895 104.716606 4.983778 104.930862 5.67 104.919998 C 6.49883 104.956329 7.326978 104.834145 8.11 104.559998 C 10.254894 103.756012 12.259533 102.618706 14.049999 101.190002 C 15.959999 99.779999 17.790001 98.190002 19.59 96.620003 C 23.530001 93.129997 27.32 89.410004 31.080002 85.620003 L 37.98 78.620003 C 41.459999 75.080002 44.98 71.559998 48.560001 68.139999 C 51.258877 65.416061 54.13517 62.873833 57.169998 60.529999 C 57.864662 60.014236 58.589264 59.54007 59.339996 59.110001 C 62.25 57.510002 63.900002 57.830002 64.459999 58.580002 C 64.602638 58.7379 64.714554 58.921036 64.790001 59.120003 C 64.790001 59.400002 64.540001 59.519997 64.089996 59.639999 C 63.384285 59.821571 62.695168 60.062424 62.029999 60.360001 C 60.602432 61.056274 59.260185 61.915314 58.029999 62.919998 C 56.700001 63.919998 55.41 65.040001 54.119999 66.199997 C 51.529999 68.519997 49 71 46.470001 73.489998 C 42.73 77.220001 39 81 35.27 84.849998 Z"/>
        <path id="path2" fill="#221f1f" stroke="none" d="M 60.449997 48.669998 L 60.879997 49.18 L 61.230003 49.550003 L 61.709999 50.029999 C 61.723526 50.364502 61.70343 50.699516 61.650002 51.029999 C 61.589996 51.190002 61.519997 51.360001 61.449997 51.520004 L 61.150002 51.970001 C 60.86393 52.324814 60.553154 52.658981 60.220001 52.970001 C 60.132416 53.038345 60.052002 53.115402 59.980003 53.199997 C 59.919998 53.199997 59.980003 53.309998 59.980003 53.330002 C 60.035583 53.368271 60.102776 53.385948 60.169998 53.380005 C 60.315987 53.400009 60.464012 53.400009 60.610001 53.380005 C 60.76815 53.374184 60.925461 53.354095 61.080002 53.32 C 61.767761 53.188789 62.438622 52.98082 63.080002 52.699997 C 64.409584 52.095947 65.687225 51.383545 66.900002 50.57 C 68.410004 49.57 69.900002 48.440002 71.269997 47.300003 C 73.790001 45.300003 76.199997 43.130005 78.529999 40.880005 C 80.876945 38.672424 83.040718 36.277878 85 33.720001 C 85.865044 32.785126 86.045456 31.40593 85.449997 30.279999 C 84.980003 29.279999 83.449997 29.729996 82.279999 30.279999 C 80.680443 31.103813 79.169258 32.088928 77.769997 33.220001 C 76.330002 34.330002 74.93 35.5 73.529999 36.669998 C 71.809998 38.169998 72.75 34.959999 76.160004 32.240005 C 77.668846 31.011536 79.28923 29.926819 81 29 C 81.961548 28.467072 83.018044 28.127357 84.110001 28 C 84.830742 27.962593 85.540817 28.186264 86.110001 28.630005 C 86.625107 29.079948 86.997093 29.670959 87.18 30.330002 C 87.497772 31.518143 87.321007 32.784317 86.690002 33.839996 C 86.200394 34.714569 85.634888 35.544434 85 36.32 C 83.699997 37.790001 82.370003 39.160004 81 40.5 C 77.707161 43.807053 74.221039 46.915848 70.559998 49.809998 C 68.887146 51.107971 67.118797 52.277954 65.269997 53.309998 C 64.317917 53.843842 63.312401 54.276207 62.269997 54.599998 C 61.723885 54.769783 61.160294 54.877136 60.589996 54.919998 C 60.437309 54.939896 60.282684 54.939896 60.129997 54.919998 C 59.938545 54.917816 59.747711 54.897728 59.559998 54.860001 C 59.189102 54.750671 58.830521 54.603218 58.489998 54.419998 C 58.218613 54.250488 58.024681 53.98114 57.950001 53.669998 C 57.932613 53.350822 58.028206 53.035721 58.220001 52.779999 C 58.420067 52.49498 58.65152 52.233345 58.910004 52 L 59.440002 51.490005 C 59.640106 51.342697 59.827438 51.178787 60 51 C 60.07 50.889999 60.169998 50.720001 60.07 50.610001 L 59.82 50.339996 L 59.379997 49.830002 C 59.087723 49.479149 58.820396 49.108246 58.580002 48.720001 C 58.302071 48.294342 58.099136 47.824203 57.98 47.330002 C 57.821926 46.712608 58.018181 46.058426 58.489998 45.630005 C 58.759636 45.529053 59.042679 45.468399 59.330002 45.449997 C 59.569603 45.430466 59.810394 45.430466 60.050003 45.449997 C 60.473595 45.475784 60.894722 45.532608 61.309998 45.619995 C 61.620003 45.690002 61.919998 45.770004 62.230003 45.860001 L 62.629997 45.979996 L 62.860001 46.07 C 62.940002 46.130005 62.980003 46 63.040001 45.970001 L 63.25 45.770004 L 63.889999 45.130005 L 65.959999 43.130005 L 64.959999 42.639999 L 63.400002 41.809998 C 62.369469 41.24427 61.368195 40.626816 60.400002 39.959999 C 59.78511 39.532471 59.215492 39.043274 58.699997 38.5 C 58.394279 38.221512 58.152122 37.880447 57.990002 37.5 C 57.814602 37.037018 57.915195 36.514709 58.25 36.150002 C 59.176155 35.189117 60.47818 34.684402 61.809998 34.770004 C 62.974709 34.782639 64.137283 34.872833 65.290001 35.040001 C 66.089996 35.139999 66.870003 35.240005 67.669998 35.360001 C 70.669998 35.809998 71.529999 36.040001 72.099998 36.559998 C 72.235336 36.666885 72.362366 36.78389 72.480003 36.910004 C 72.720001 37.279999 71.480003 37.380005 69.290001 37.139999 C 67.489998 36.940002 65.669998 36.68 63.879997 36.490005 C 63.017151 36.389908 62.147369 36.363144 61.279999 36.410004 C 60.917076 36.432693 60.559692 36.510239 60.220001 36.639999 C 60.075005 36.700775 59.937439 36.777939 59.809998 36.869995 L 59.620003 37.009995 L 59.540001 37.099998 L 59.540001 37.099998 C 59.540001 37.099998 59.540001 37.099998 59.540001 37.099998 L 59.540001 37.099998 L 59.650002 37.240005 C 59.741867 37.354012 59.842148 37.460983 59.949997 37.559998 C 60.459717 38.029007 61.008354 38.453873 61.589996 38.830002 C 62.841988 39.619125 64.13369 40.343414 65.459999 41 L 66.800003 41.669998 L 68.629997 42.529999 L 64 47.190002 L 63.580002 47.610001 C 63.43 47.740005 63.309998 47.959999 63.110001 47.809998 L 62 47.43 C 61.671638 47.319733 61.337875 47.226273 61 47.150002 C 60.671143 47.0737 60.336769 47.023544 60 47 L 59.610001 47 C 59.610001 47 59.610001 47 59.610001 47 L 59.610001 47 C 59.610001 47 59.610001 47.160004 59.709999 47.259995 C 59.943726 47.735413 60.232361 48.181786 60.57 48.589996 Z"/>
        <path id="path3" fill="#221f1f" stroke="none" d="M 78.300003 52.509995 C 78.471207 51.899033 78.581749 51.272667 78.629997 50.639999 C 78.699997 49.970001 78.730003 49.279999 78.75 48.639999 C 78.75 48.139999 78.75 47.639999 78.75 47.130005 C 78.75 46.259995 78.75 45.300003 78.669998 44.520004 C 78.683556 44.330246 78.683556 44.139755 78.669998 43.949997 C 78.659714 43.838455 78.639641 43.728027 78.610001 43.619995 C 78.610001 43.619995 78.550003 43.5 78.5 43.509995 C 78.464935 43.538406 78.43457 43.572151 78.410004 43.610001 C 78.309998 43.740005 78.209999 43.910004 78.099998 44.07 C 78.047089 44.164528 77.986908 44.254807 77.919998 44.339996 C 77.787827 44.515945 77.64418 44.682976 77.489998 44.839996 C 77.296387 45.054039 77.082001 45.248322 76.849998 45.419998 C 76.648521 45.587776 76.438225 45.744667 76.220001 45.889999 C 75.790894 46.201447 75.323784 46.456848 74.830002 46.650002 C 74.690002 46.650002 74.510002 46.650002 74.540001 46.479996 C 74.459732 46.438065 74.41539 46.34938 74.43 46.259995 C 74.415344 46.153839 74.415344 46.046158 74.43 45.940002 C 74.471184 45.417931 74.737686 44.939682 75.160004 44.630005 C 75.547424 44.37645 75.921272 44.102745 76.279999 43.809998 C 76.438156 43.671219 76.582191 43.517136 76.709999 43.349998 C 77 43 77.300003 42.5 77.580002 42.080002 C 77.694122 41.869186 77.83532 41.674202 78 41.5 C 78.11615 41.433846 78.24057 41.383408 78.370003 41.349998 C 78.589996 41.349998 78.75 41.119995 79.080002 41.349998 C 79.347725 41.458305 79.555557 41.677078 79.650002 41.949997 C 79.797607 42.35318 79.895012 42.77301 79.940002 43.199997 C 80.089996 44.490005 80.080002 44.900002 80.139999 45.610001 C 80.199997 46.32 80.230003 46.919998 80.230003 47.610001 C 80.244637 49.078568 80.14769 50.54612 79.940002 52 C 79.873428 52.490814 79.735298 52.969238 79.529999 53.419998 C 79.298874 54.02916 78.711472 54.428749 78.059998 54.419998 C 77.623047 54.350052 77.218124 54.147591 76.900002 53.839996 C 76.633049 53.595886 76.388718 53.328125 76.169998 53.040001 C 75.764809 52.485268 75.397316 51.903961 75.07 51.300003 C 74.540298 50.396797 74.088661 49.450027 73.720001 48.470001 C 73.633484 48.245354 73.563301 48.014755 73.510002 47.779999 C 73.300003 46.889999 73.57 46.309998 74.059998 46.300003 C 74.16143 46.29451 74.262245 46.318848 74.349998 46.369995 C 74.550003 46.660004 74.730003 46.650002 74.830002 47.099998 C 75.341919 48.702469 76.072113 50.226791 77 51.630005 C 77.167168 51.881927 77.350906 52.122452 77.550003 52.349998 C 77.695854 52.511383 77.85656 52.658707 78.029999 52.790001 L 78.029999 52.790001 C 78.029999 52.790001 78.120003 52.699997 78.190002 52.479996 Z"/>
        <path id="path4" fill="#221f1f" stroke="none" d="M 62.919998 52.360001 C 62.712273 52.61644 62.466011 52.839081 62.190002 53.020004 C 62.003593 53.13517 61.801498 53.222748 61.589996 53.279999 C 61.177956 53.379898 60.752647 53.413651 60.330002 53.380005 C 60.050003 53.380005 59.660004 52.970001 59.830002 52.68 L 60.690002 51.32 L 60.760002 51.229996 L 60.760002 51.150002 C 60.807678 51.079323 60.851089 51.005859 60.889999 50.93 C 60.949287 50.843361 60.960701 50.732605 60.920319 50.635696 C 60.879944 50.538795 60.793266 50.468903 60.690002 50.449997 C 60.690002 50.449997 60.629997 50.449997 60.599998 50.400002 L 60.550003 50.400002 L 60.360001 50.270004 C 60.099998 50.089996 59.830002 49.910004 59.550003 49.699997 C 59.384834 49.580597 59.227814 49.450317 59.080002 49.309998 C 58.976387 49.213394 58.879494 49.109818 58.790001 49 C 58.719337 48.91539 58.655785 48.825081 58.599998 48.729996 C 58.553444 48.671051 58.513222 48.607368 58.480003 48.540001 C 58.480003 48.419998 58.379997 48.300003 58.339996 48.18 L 58.339996 48 C 58.324257 47.850418 58.324257 47.699585 58.339996 47.550003 C 58.349442 47.197334 58.449295 46.852997 58.629997 46.550003 C 58.834297 46.206604 59.132751 45.92897 59.489998 45.75 C 59.644997 45.669365 59.809662 45.608871 59.980003 45.57 L 60.209999 45.57 L 60.309998 45.57 C 60.489456 45.550186 60.670547 45.550186 60.849998 45.57 C 60.978653 45.586182 61.105743 45.612938 61.230003 45.650002 C 61.367599 45.665855 61.500404 45.710129 61.620003 45.779999 C 61.986473 45.969948 62.371933 46.120781 62.769997 46.229996 L 63.029999 46.300003 L 63.099998 46.300003 L 63.099998 46.300003 L 63.099998 46.300003 L 63.839996 45.599998 C 64.379997 45.059998 64.910004 44.490005 65.400002 43.910004 L 66.089996 43.050003 C 66.089996 43.050003 66.089996 43.050003 66.089996 43.050003 L 66.089996 43.050003 L 66.089996 43.050003 L 65.779999 42.910004 L 65.269997 42.699997 L 64.769997 42.5 L 64.230003 42.25 L 63.309998 41.790001 C 62.623383 41.446121 61.95575 41.065575 61.309998 40.650002 C 60.809509 40.325806 60.366737 39.920212 60 39.449997 C 59.874214 39.292145 59.760559 39.125008 59.660004 38.949997 C 59.606079 38.863953 59.559258 38.773651 59.519997 38.68 C 59.466301 38.560562 59.422813 38.436783 59.389999 38.309998 C 59.334724 38.145447 59.30439 37.973541 59.300003 37.800003 C 59.279953 37.600502 59.279953 37.399498 59.300003 37.199997 C 59.424324 36.519562 59.821831 35.919693 60.400002 35.540001 C 60.643898 35.37883 60.910049 35.254181 61.190002 35.169998 C 61.683853 35.02787 62.19619 34.960457 62.709999 34.970001 C 63.110001 34.970001 63.470001 34.970001 63.82 35.029999 C 64.519997 35.089996 65.190002 35.169998 65.82 35.25 C 66.250664 35.339813 66.692932 35.360069 67.129997 35.309998 C 68.899254 35.38269 70.659019 35.60685 72.389999 35.979996 L 72.440002 35.979996 C 72.548561 35.950378 72.652779 35.90667 72.75 35.849998 C 72.967125 35.724602 73.177422 35.587738 73.379997 35.440002 C 73.709999 35.220001 74.190002 34.82 74.620003 34.440002 L 75.970001 33.380005 C 76.890984 32.663544 77.848976 31.995956 78.839996 31.380005 C 79.108429 31.163406 79.417999 31.00351 79.75 30.910004 C 80.535797 30.757401 81.29425 30.487732 82 30.110001 C 83.042786 29.615463 84.203835 29.42485 85.349998 29.559998 C 85.964546 29.675583 86.521629 29.996437 86.93 30.470001 C 87.300003 30.839996 86.760002 31.089996 86.620003 31.080002 C 86.169998 31.020004 86.370003 31.400002 86.279999 31.580002 C 86.251602 31.647774 86.21463 31.711624 86.169998 31.770004 C 86.107498 31.784515 86.042503 31.784515 85.980003 31.770004 L 85.800003 31.770004 L 85.550003 31.770004 C 85.083366 31.807777 84.630058 31.944107 84.220001 32.169998 C 83.429672 32.647949 82.677437 33.186218 81.970001 33.779999 C 81.970001 33.779999 81.559998 34.080002 80.970001 34.520004 C 80.379997 34.959999 79.669998 35.599998 78.970001 36.290001 C 78.269997 36.979996 77.5 37.729996 76.879997 38.369995 C 76.349998 38.915359 75.759514 39.398483 75.120003 39.809998 C 74.426773 40.22966 73.630318 40.447815 72.82 40.440002 C 72.44854 40.467316 72.075089 40.443771 71.709999 40.369995 C 71.339996 40.309998 69.919998 40.099998 68.519997 39.949997 C 67.120003 39.800003 65.800003 39.690002 65.690002 39.690002 C 65.07 39.690002 64.449997 39.690002 63.870003 39.690002 L 63 39.690002 C 62.896973 39.701309 62.793022 39.701309 62.690002 39.690002 L 62.599998 39.690002 L 62.599998 39.690002 C 62.599998 39.690002 62.599998 39.75 62.599998 39.589996 C 62.562019 39.373123 62.508545 39.159241 62.440002 38.949997 C 62.440002 38.800003 62.349998 38.660004 62.309998 38.520004 C 62.266434 38.39267 62.212936 38.268951 62.150002 38.150002 C 62.117783 38.054222 62.066788 37.965836 62 37.889999 C 61.93 37.809998 61.940002 37.779999 61.879997 37.740005 C 61.82 37.699997 61.800003 37.740005 61.879997 37.740005 C 61.947021 37.734451 62.011948 37.713943 62.07 37.68 L 62.07 37.68 L 62.07 37.68 L 62.589996 37.389999 L 62.589996 37.389999 L 62.68 37.339996 C 62.971985 37.141159 63.237457 36.90593 63.470001 36.639999 C 63.470001 36.639999 63.470001 36.639999 63.559998 36.639999 L 64 36.889999 C 64.370003 37.080002 64.830002 37.279999 65.349998 37.490005 L 66.220001 37.889999 L 66.93 38.229996 L 67.760002 38.650002 L 68.239998 38.900002 C 68.480003 39.029999 68.690002 39.169998 68.919998 39.309998 C 69.777245 39.822281 70.470947 40.568008 70.919998 41.459999 C 71.110611 41.908051 71.196129 42.393791 71.169998 42.880005 C 71.167976 43.120087 71.120476 43.357605 71.029999 43.580002 C 70.962761 43.819748 70.868835 44.051193 70.75 44.270004 C 70.580429 44.604355 70.361282 44.911148 70.099998 45.18 C 69.950684 45.369217 69.790413 45.54953 69.620003 45.720001 L 69.220001 46.150002 C 68.225494 47.155136 67.148384 48.075035 66 48.900002 L 65.529999 49.229996 C 65.470001 49.290001 65.309998 49.360001 65.190002 49.449997 L 64.809998 49.690002 C 64.547348 49.811584 64.276718 49.915161 64 50 C 63.708801 50.050003 63.411201 50.050003 63.120003 50 C 61.730003 49.779999 61.260002 49.449997 60.57 49.360001 L 60.349998 49.360001 C 60.349998 49.360001 60.269997 49.360001 60.239998 49.360001 L 60.239998 49.360001 L 60.239998 49.360001 L 60.309998 49.080002 C 60.473091 48.597824 60.534386 48.087067 60.489998 47.580002 C 60.489998 47.580002 60.489998 47.580002 60.489998 47.580002 C 60.522926 47.587334 60.557068 47.587334 60.589996 47.580002 L 60.940002 47.400002 C 61.108452 47.295395 61.268898 47.178406 61.419998 47.050003 L 61.720001 46.809998 C 61.800003 46.729996 61.940002 46.589996 61.900002 46.639999 L 61.900002 46.639999 L 62 46.759995 C 62.169998 46.940002 62.440002 47.169998 62.709999 47.410004 L 62.93 47.610001 C 63.037369 47.702354 63.13765 47.802635 63.230003 47.910004 C 63.440002 48.099998 63.599998 48.300003 63.760002 48.470001 C 63.908295 48.675156 64.038765 48.892609 64.150002 49.119995 C 64.233536 49.266785 64.303818 49.420731 64.360001 49.580002 C 64.458527 50.133682 64.328659 50.703659 64 51.160004 C 63.687485 51.600311 63.325073 52.002991 62.919998 52.360001 Z"/>
        <path id="path5" fill="#221f1f" stroke="none" d="M 38.259998 5.620003 C 40.112797 3.601196 42.762333 2.503319 45.5 2.620003 C 46.639999 2.68 48.040001 1 46.369999 0.919998 C 42.563808 0.700478 38.853107 2.162827 36.220001 4.919998 C 35.139999 5.989998 37.52 6.309998 38.220001 5.580002 Z"/>
        <path id="path6" fill="#221f1f" stroke="none" d="M 105.669998 37.160004 C 108.138367 39.327545 109.074928 42.759003 108.050003 45.880005 C 107.639999 46.970001 109.669998 46.949997 109.980003 46.110001 C 111.22776 42.634453 110.256516 38.749481 107.519997 36.270004 C 106.860001 35.639999 104.949997 36.479996 105.669998 37.160004 Z"/>
        <path id="path7" fill="#221f1f" stroke="none" d="M 110.620003 33.57 C 112.485146 34.659546 113.567528 36.715683 113.410004 38.869995 C 113.410004 39.759995 115.410004 39.380005 115.410004 38.639999 C 115.599442 36.153893 114.347885 33.779053 112.190002 32.529999 C 111.580002 32.139999 109.730003 33 110.580002 33.529999 Z"/>
        <path id="path8" fill="#221f1f" stroke="none" d="M 35.439999 30.619995 C 35.639999 33.290001 30.549999 33.459999 31.009998 30.32 C 31.32 28.119995 34.73 27.979996 35.349998 30.139999 C 35.397484 30.296219 35.427662 30.457184 35.439999 30.619995 Z"/>
        <path id="path9" fill="#221f1f" stroke="none" d="M 25.379999 40.190002 C 25.5 41.779999 22.450001 41.889999 22.719999 40 C 22.859451 39.409515 23.375696 38.984604 23.981972 38.961288 C 24.588249 38.937973 25.135605 39.321976 25.32 39.900002 C 25.349516 39.994446 25.369616 40.091591 25.379999 40.190002 Z"/>
        <path id="path10" fill="#221f1f" stroke="none" d="M 74.779999 88.68 C 74.900002 90.279999 71.839996 90.379997 72.120003 88.489998 C 72.259453 87.899521 72.775696 87.474602 73.381973 87.451286 C 73.988251 87.427971 74.535606 87.811974 74.720001 88.389999 C 74.74855 88.484695 74.768631 88.581749 74.779999 88.68 Z"/>
    </g>
</svg>
