<?xml version="1.0" encoding="UTF-8" standalone="no"?><!DOCTYPE svg PUBLIC "-//W3C//DTD SVG 1.1//EN" "http://www.w3.org/Graphics/SVG/1.1/DTD/svg11.dtd"><svg width="100%" height="100%" viewBox="0 0 540 540" version="1.1" xmlns="http://www.w3.org/2000/svg" xmlns:xlink="http://www.w3.org/1999/xlink" xml:space="preserve" xmlns:serif="http://www.serif.com/" style="fill-rule:evenodd;clip-rule:evenodd;stroke-linejoin:round;stroke-miterlimit:2;"><path d="M540.009,135l-0,270c-0,74.509 -60.492,135 -135,135l-270.009,0c-74.509,0 -135,-60.491 -135,-135l0,-270c0,-74.509 60.491,-135 135,-135l270.009,0c74.508,0 135,60.491 135,135Z" style="fill:#219653;"/><path d="M515,147.5l-0,245c-0,67.61 -54.89,122.5 -122.5,122.5l-245,-0c-67.61,-0 -122.5,-54.89 -122.5,-122.5l0,-245c0,-67.61 54.89,-122.5 122.5,-122.5l245,0c67.61,0 122.5,54.89 122.5,122.5Z" style="fill:#00aa45;"/><g transform="matrix(500,0,0,500,135.994,465.876)"><path d="M0.225,-0.755c-0.003,0.019 -0.005,0.042 -0.008,0.069c-0.003,0.027 -0.005,0.052 -0.008,0.077c-0.002,0.025 -0.004,0.045 -0.005,0.058c-0.001,0.007 -0.002,0.02 -0.003,0.038c-0.002,0.019 -0.004,0.039 -0.006,0.06c-0.003,0.022 -0.006,0.042 -0.009,0.06l0.001,-0c0.011,-0.022 0.023,-0.041 0.036,-0.056c0.013,-0.015 0.026,-0.027 0.039,-0.036c0.013,-0.009 0.026,-0.015 0.039,-0.02c0.012,-0.004 0.023,-0.006 0.034,-0.006c0.034,-0 0.062,0.009 0.083,0.027c0.021,0.018 0.036,0.041 0.046,0.07c0.009,0.029 0.014,0.061 0.014,0.094c0,0.045 -0.005,0.087 -0.015,0.127c-0.01,0.04 -0.026,0.075 -0.047,0.106c-0.021,0.031 -0.049,0.055 -0.083,0.072c-0.035,0.017 -0.077,0.026 -0.126,0.026c-0.011,-0 -0.025,-0.001 -0.044,-0.003c-0.019,-0.001 -0.038,-0.004 -0.059,-0.008c-0.021,-0.004 -0.04,-0.009 -0.057,-0.016c0.002,-0.053 0.004,-0.102 0.006,-0.146c0.002,-0.043 0.004,-0.086 0.007,-0.127c0.002,-0.041 0.004,-0.083 0.007,-0.127c0.003,-0.043 0.006,-0.091 0.009,-0.144c0.001,-0.011 0.002,-0.026 0.003,-0.044c0.001,-0.017 0.003,-0.033 0.005,-0.048c-0.011,0.001 -0.023,0.001 -0.037,0.001c-0.014,0.001 -0.025,0.001 -0.032,0.002l0.004,-0.076c0.031,-0 0.056,-0.002 0.077,-0.005c0.021,-0.003 0.037,-0.007 0.05,-0.012c0.012,-0.005 0.02,-0.009 0.025,-0.013l0.054,-0Zm0.07,0.336c-0.013,-0 -0.025,0.006 -0.037,0.018c-0.012,0.013 -0.023,0.03 -0.033,0.052c-0.01,0.022 -0.019,0.048 -0.026,0.078c-0.008,0.03 -0.014,0.062 -0.019,0.097c-0.005,0.035 -0.007,0.072 -0.008,0.11c0.005,0.003 0.013,0.005 0.023,0.006c0.011,0.002 0.019,0.003 0.026,0.003c0.022,-0 0.04,-0.006 0.055,-0.019c0.014,-0.012 0.025,-0.028 0.034,-0.049c0.009,-0.02 0.016,-0.042 0.02,-0.067c0.005,-0.024 0.008,-0.048 0.009,-0.072c0.001,-0.023 0.002,-0.044 0.002,-0.063c-0,-0.036 -0.005,-0.061 -0.015,-0.074c-0.009,-0.013 -0.02,-0.02 -0.031,-0.02Z" style="fill-rule:nonzero;"/></g><g transform="matrix(500,0,0,500,392.494,465.876)"></g><g transform="matrix(500,0,0,500,157.506,446.124)"><path d="M0.225,-0.755c-0.003,0.019 -0.005,0.042 -0.008,0.069c-0.003,0.027 -0.005,0.052 -0.008,0.077c-0.002,0.025 -0.004,0.045 -0.005,0.058c-0.001,0.007 -0.002,0.02 -0.003,0.038c-0.002,0.019 -0.004,0.039 -0.006,0.06c-0.003,0.022 -0.006,0.042 -0.009,0.06l0.001,-0c0.011,-0.022 0.023,-0.041 0.036,-0.056c0.013,-0.015 0.026,-0.027 0.039,-0.036c0.013,-0.009 0.026,-0.015 0.039,-0.02c0.012,-0.004 0.023,-0.006 0.034,-0.006c0.034,-0 0.062,0.009 0.083,0.027c0.021,0.018 0.036,0.041 0.046,0.07c0.009,0.029 0.014,0.061 0.014,0.094c0,0.045 -0.005,0.087 -0.015,0.127c-0.01,0.04 -0.026,0.075 -0.047,0.106c-0.021,0.031 -0.049,0.055 -0.083,0.072c-0.035,0.017 -0.077,0.026 -0.126,0.026c-0.011,-0 -0.025,-0.001 -0.044,-0.003c-0.019,-0.001 -0.038,-0.004 -0.059,-0.008c-0.021,-0.004 -0.04,-0.009 -0.057,-0.016c0.002,-0.053 0.004,-0.102 0.006,-0.146c0.002,-0.043 0.004,-0.086 0.007,-0.127c0.002,-0.041 0.004,-0.083 0.007,-0.127c0.003,-0.043 0.006,-0.091 0.009,-0.144c0.001,-0.011 0.002,-0.026 0.003,-0.044c0.001,-0.017 0.003,-0.033 0.005,-0.048c-0.011,0.001 -0.023,0.001 -0.037,0.001c-0.014,0.001 -0.025,0.001 -0.032,0.002l0.004,-0.076c0.031,-0 0.056,-0.002 0.077,-0.005c0.021,-0.003 0.037,-0.007 0.05,-0.012c0.012,-0.005 0.02,-0.009 0.025,-0.013l0.054,-0Zm0.07,0.336c-0.013,-0 -0.025,0.006 -0.037,0.018c-0.012,0.013 -0.023,0.03 -0.033,0.052c-0.01,0.022 -0.019,0.048 -0.026,0.078c-0.008,0.03 -0.014,0.062 -0.019,0.097c-0.005,0.035 -0.007,0.072 -0.008,0.11c0.005,0.003 0.013,0.005 0.023,0.006c0.011,0.002 0.019,0.003 0.026,0.003c0.022,-0 0.04,-0.006 0.055,-0.019c0.014,-0.012 0.025,-0.028 0.034,-0.049c0.009,-0.02 0.016,-0.042 0.02,-0.067c0.005,-0.024 0.008,-0.048 0.009,-0.072c0.001,-0.023 0.002,-0.044 0.002,-0.063c-0,-0.036 -0.005,-0.061 -0.015,-0.074c-0.009,-0.013 -0.02,-0.02 -0.031,-0.02Z" style="fill:#fff;fill-rule:nonzero;stroke:#000;stroke-width:0.02px;"/></g><g transform="matrix(500,0,0,500,414.006,446.124)"></g></svg>